<svg width="25" height="24" viewBox="0 0 25 24" fill="none" xmlns="http://www.w3.org/2000/svg">
<path d="M22.0587 5.27719L22.5785 3.54346C22.6745 3.22406 22.8913 2.95654 23.1811 2.79976C23.471 2.64297 23.8102 2.60977 24.1242 2.70744C24.4381 2.80511 24.701 3.02567 24.8551 3.32058C25.0092 3.61549 25.0419 3.96061 24.9459 4.28001L23.498 9.09594C23.402 9.41509 23.1854 9.68243 22.8958 9.83919C22.6062 9.99596 22.2673 10.0293 21.9535 9.93196L17.2199 8.45885C17.0612 8.4134 16.913 8.33615 16.7841 8.23164C16.6552 8.12712 16.548 7.99745 16.469 7.85023C16.39 7.70302 16.3407 7.54122 16.324 7.37435C16.3074 7.20748 16.3236 7.0389 16.3718 6.87851C16.4201 6.71812 16.4993 6.56915 16.6049 6.44035C16.7105 6.31155 16.8404 6.20552 16.9868 6.12848C17.1333 6.05144 17.2934 6.00495 17.4577 5.99173C17.6221 5.97852 17.7873 5.99884 17.9439 6.05152L20.013 6.6949C19.0983 5.28336 17.8224 4.15244 16.3228 3.42395C14.8231 2.69546 13.1565 2.39701 11.5025 2.56073C9.84852 2.72444 8.26975 3.34413 6.93624 4.35306C5.60274 5.36198 4.56504 6.7219 3.93489 8.28636L3.61313 9.08335C3.55462 9.24067 3.4657 9.38447 3.35165 9.50626C3.2376 9.62804 3.10071 9.72534 2.94908 9.7924C2.79745 9.85946 2.63415 9.89494 2.46882 9.89672C2.30349 9.8985 2.13949 9.86656 1.98649 9.80279C1.8335 9.73901 1.69462 9.64469 1.57805 9.5254C1.46148 9.4061 1.36959 9.26425 1.30781 9.10823C1.24602 8.9522 1.2156 8.78516 1.21832 8.61697C1.22105 8.44877 1.25687 8.28284 1.32368 8.12897L1.64544 7.33199C2.44518 5.34679 3.76129 3.6207 5.45247 2.33906C7.14364 1.05742 9.146 0.268633 11.2445 0.0573942C13.3431 -0.153845 15.4586 0.220443 17.3638 1.14007C19.269 2.0597 20.8921 3.48993 22.0587 5.27719ZM2.84957 18.6397L2.44489 20.2903C2.40869 20.454 2.34068 20.6087 2.24488 20.7453C2.14907 20.8818 2.0274 20.9976 1.88701 21.0856C1.74662 21.1737 1.59034 21.2323 1.42736 21.258C1.26439 21.2838 1.098 21.2761 0.937977 21.2355C0.777954 21.1949 0.627526 21.1221 0.495532 21.0215C0.363538 20.9209 0.252643 20.7945 0.169362 20.6496C0.086081 20.5048 0.0320955 20.3445 0.0105778 20.1781C-0.0109399 20.0118 0.00044447 19.8427 0.0440618 19.6809L1.24076 14.7957C1.28114 14.6294 1.35446 14.4732 1.45622 14.3367C1.55799 14.2002 1.68607 14.0863 1.83263 14.0019C1.97918 13.9175 2.14112 13.8644 2.30853 13.8459C2.47594 13.8274 2.64531 13.8438 2.80626 13.8942L7.54357 15.0954C7.8621 15.1762 8.13604 15.3824 8.30511 15.6687C8.47418 15.955 8.52455 16.2979 8.44512 16.622C8.36569 16.9461 8.16298 17.2248 7.88157 17.3968C7.60017 17.5688 7.26313 17.62 6.9446 17.5392L4.73435 16.9789C5.67923 18.4506 7.01484 19.6196 8.58625 20.3502C10.1577 21.0809 11.9005 21.3434 13.6126 21.1072C15.3247 20.871 16.9359 20.1459 18.2593 19.0158C19.5827 17.8858 20.5641 16.3972 21.0897 14.7227C21.1391 14.5651 21.2185 14.419 21.3235 14.2927C21.4284 14.1663 21.5567 14.0622 21.7012 13.9864C21.8456 13.9105 22.0033 13.8643 22.1653 13.8504C22.3273 13.8366 22.4904 13.8553 22.6453 13.9056C22.8002 13.9558 22.9438 14.0366 23.068 14.1434C23.1922 14.2501 23.2945 14.3807 23.3691 14.5277C23.4436 14.6746 23.489 14.8351 23.5027 14.9999C23.5163 15.1647 23.4979 15.3306 23.4485 15.4882C22.9333 17.1325 22.0702 18.642 20.9199 19.9104C19.7696 21.1788 18.3601 22.1753 16.7905 22.8298C14.3449 23.8491 11.6307 23.9895 9.09613 23.2277C6.56155 22.4659 4.35809 20.8475 2.84957 18.6397Z" fill="#093DE6"/>
</svg>
