<svg width="20" height="26" viewBox="0 0 20 26" fill="none" xmlns="http://www.w3.org/2000/svg">
<path d="M10.5483 14.5L10.5568 14.4602C10.7216 13.7812 10.929 12.9347 10.767 12.1676C10.6591 11.5625 10.2131 11.3267 9.83239 11.3097C9.38352 11.2898 8.98295 11.5455 8.88352 11.9176C8.69602 12.5994 8.86364 13.5312 9.17045 14.7188C8.78409 15.6392 8.16761 16.9773 7.71591 17.7727C6.875 18.2074 5.74716 18.8778 5.57955 19.7244C5.54545 19.8807 5.58523 20.0795 5.67898 20.2585C5.78409 20.4574 5.9517 20.6108 6.14773 20.6847C6.23295 20.7159 6.33523 20.7415 6.45455 20.7415C6.95455 20.7415 7.7642 20.3381 8.84375 18.4858C9.00852 18.4318 9.17898 18.375 9.34375 18.3182C10.1165 18.0568 10.9176 17.7841 11.642 17.6619C12.4432 18.0909 13.3551 18.3665 13.9744 18.3665C14.5881 18.3665 14.8295 18.0028 14.9205 17.7841C15.0795 17.4006 15.0028 16.9176 14.7443 16.6591C14.3693 16.2898 13.4574 16.1932 12.0369 16.3693C11.3381 15.9432 10.8807 15.3636 10.5483 14.5ZM7.43182 18.8153C7.03693 19.3892 6.73864 19.6761 6.5767 19.8011C6.76705 19.4517 7.1392 19.0824 7.43182 18.8153ZM9.92045 12.125C10.0682 12.3778 10.0483 13.142 9.93466 13.5284C9.79545 12.9631 9.77557 12.1619 9.85795 12.0682C9.88068 12.071 9.90057 12.0881 9.92045 12.125ZM9.875 15.5483C10.179 16.0739 10.5625 16.5256 10.9858 16.8608C10.3722 17 9.8125 17.2301 9.3125 17.4347C9.19318 17.483 9.0767 17.5312 8.96307 17.5767C9.34091 16.892 9.65625 16.1165 9.875 15.5483ZM14.2955 17.4091C14.2983 17.4148 14.3011 17.4233 14.2841 17.4347H14.2784L14.2727 17.4432C14.25 17.4574 14.017 17.5938 13.0142 17.1989C14.1676 17.1449 14.2926 17.4062 14.2955 17.4091ZM19.733 6.38068L13.6193 0.267045C13.4489 0.096591 13.2188 0 12.9773 0H0.909091C0.40625 0 0 0.40625 0 0.909091V24.5455C0 25.0483 0.40625 25.4545 0.909091 25.4545H19.0909C19.5938 25.4545 20 25.0483 20 24.5455V7.02557C20 6.78409 19.9034 6.55114 19.733 6.38068ZM17.9034 7.44318H12.5568V2.09659L17.9034 7.44318ZM17.9545 23.4091H2.04545V2.04545H10.625V8.18182C10.625 8.49827 10.7507 8.80176 10.9745 9.02553C11.1982 9.24929 11.5017 9.375 11.8182 9.375H17.9545V23.4091Z" fill="black"/>
</svg>
