<svg width="17" height="15" viewBox="0 0 17 15" fill="none" xmlns="http://www.w3.org/2000/svg">
<path d="M7.43756 0.9375C7.43756 0.68886 7.54951 0.450403 7.74876 0.274588C7.94802 0.0987722 8.21827 0 8.50006 0C8.78186 0 9.05211 0.0987722 9.25137 0.274588C9.45062 0.450403 9.56256 0.68886 9.56256 0.9375V7.64813L13.0083 4.60781L14.5106 5.93344L8.50006 11.2369L2.4895 5.93438L3.99188 4.60875L7.43756 7.64813V0.9375Z" fill="#093DE6"/>
<path d="M0 9.375H2.125V13.125H14.875V9.375H17V13.125C17 13.6223 16.7761 14.0992 16.3776 14.4508C15.9791 14.8025 15.4386 15 14.875 15H2.125C1.56141 15 1.02091 14.8025 0.622398 14.4508C0.223883 14.0992 0 13.6223 0 13.125V9.375Z" fill="#093DE6"/>
</svg>
