<svg width="10" height="6" viewBox="0 0 10 6" fill="none" xmlns="http://www.w3.org/2000/svg">
<path fill-rule="evenodd" clip-rule="evenodd" d="M0.112982 0.112982C0.148705 0.0771681 0.191143 0.0487537 0.237865 0.0293664C0.284586 0.00997912 0.334673 0 0.385258 0C0.435842 0 0.485929 0.00997912 0.532651 0.0293664C0.579373 0.0487537 0.62181 0.0771681 0.657534 0.112982L5.0001 4.45632L9.34267 0.112982C9.37842 0.077226 9.42087 0.0488629 9.46759 0.029512C9.51431 0.0101611 9.56438 0.000201348 9.61494 0.000201348C9.66551 0.000201348 9.71558 0.0101611 9.7623 0.029512C9.80902 0.0488629 9.85146 0.077226 9.88722 0.112982C9.92298 0.148738 9.95134 0.191186 9.97069 0.237903C9.99004 0.28462 10 0.334691 10 0.385258C10 0.435824 9.99004 0.485895 9.97069 0.532612C9.95134 0.579329 9.92298 0.621778 9.88722 0.657533L5.27238 5.27238C5.23665 5.30819 5.19422 5.3366 5.14749 5.35599C5.10077 5.37538 5.05068 5.38536 5.0001 5.38536C4.94952 5.38536 4.89943 5.37538 4.85271 5.35599C4.80599 5.3366 4.76355 5.30819 4.72783 5.27238L0.112982 0.657533C0.0771683 0.62181 0.0487541 0.579372 0.0293668 0.532651C0.00997949 0.485929 0 0.435842 0 0.385258C0 0.334673 0.00997949 0.284586 0.0293668 0.237864C0.0487541 0.191143 0.0771683 0.148705 0.112982 0.112982V0.112982Z" fill="#093DE6"/>
</svg>
