<svg width="16" height="16" viewBox="0 0 16 16" fill="none" xmlns="http://www.w3.org/2000/svg">
<path d="M13.0688 2.24375C11.625 0.796875 9.7 0 7.65625 0C5.6125 0 3.6875 0.796875 2.24375 2.24375C0.8 3.69063 0 5.6125 0 7.65625C0 9.7 0.796875 11.625 2.24375 13.0688C3.69063 14.5125 5.6125 15.3125 7.65625 15.3125C9.7 15.3125 11.625 14.5156 13.0688 13.0688C14.5125 11.6219 15.3125 9.7 15.3125 7.65625C15.3125 5.6125 14.5156 3.6875 13.0688 2.24375ZM14.6187 7.3125H11.65C11.6219 6.13125 11.4562 4.99375 11.1656 3.98438C11.7312 3.69375 12.2594 3.32812 12.7437 2.89687C13.8375 4.06563 14.5344 5.60938 14.6187 7.3125ZM8 8H10.9656C10.9406 9.0875 10.7906 10.1281 10.5312 11.0594C9.73125 10.7375 8.87813 10.55 8 10.5094V8ZM12.25 2.41875C11.85 2.77188 11.4125 3.07188 10.95 3.32188C10.8313 2.99063 10.6969 2.67813 10.5469 2.38438C10.25 1.79688 9.9125 1.31562 9.54062 0.946875C10.5562 1.23125 11.4781 1.74063 12.25 2.41875ZM8 0.79375C8.71562 0.953125 9.39062 1.6125 9.93437 2.6875C10.0813 2.97813 10.2125 3.2875 10.3281 3.61562C9.59375 3.91875 8.80937 4.09687 8 4.1375V0.79375ZM10.5344 4.275C10.7906 5.2 10.9375 6.23438 10.9625 7.31563H8V4.82812C8.88125 4.7875 9.73438 4.59688 10.5344 4.275ZM7.3125 7.3125H4.34688C4.37188 6.23125 4.51875 5.19688 4.775 4.27187C5.575 4.59687 6.43125 4.78438 7.30937 4.82188V7.3125H7.3125ZM7.31563 0.79375V4.1375C6.50625 4.09687 5.71875 3.91875 4.9875 3.61562C5.10313 3.2875 5.23438 2.97813 5.38125 2.6875C5.925 1.6125 6.6 0.953125 7.31563 0.79375ZM5.775 0.946875C5.40313 1.31562 5.06563 1.8 4.76875 2.38438C4.62188 2.67813 4.4875 2.99063 4.36562 3.32188C3.90312 3.07188 3.46875 2.77188 3.06562 2.41875C3.8375 1.74063 4.75938 1.23125 5.775 0.946875ZM2.57188 2.89687C3.05625 3.32812 3.58438 3.69062 4.15 3.98438C3.85938 4.99687 3.69063 6.13125 3.66563 7.3125H0.696875C0.78125 5.60938 1.47813 4.06563 2.57188 2.89687ZM0.696875 8H3.66563C3.69375 9.19063 3.8625 10.3313 4.15625 11.3469C3.59375 11.6375 3.06562 11.9969 2.58437 12.4281C1.48125 11.2563 0.78125 9.70938 0.696875 8ZM3.07812 12.9062C3.47813 12.5562 3.9125 12.2562 4.37187 12.0094C4.49062 12.3312 4.62188 12.6406 4.76875 12.9281C5.06563 13.5156 5.40313 13.9969 5.775 14.3687C4.76562 14.0844 3.84687 13.5781 3.07812 12.9062ZM7.31563 14.5188C6.6 14.3594 5.925 13.7 5.38125 12.625C5.2375 12.3406 5.10938 12.0375 4.99375 11.7156C5.725 11.4125 6.50938 11.2344 7.31563 11.1969V14.5188ZM4.78438 11.0594C4.525 10.1281 4.375 9.0875 4.35 8H7.31563V10.5094C6.4375 10.5469 5.58438 10.7344 4.78438 11.0594ZM8.00313 14.5188V11.1969C8.80937 11.2375 9.59375 11.4125 10.325 11.7156C10.2094 12.0375 10.0813 12.3406 9.9375 12.625C9.39375 13.7 8.71875 14.3594 8.00313 14.5188ZM9.54375 14.3656C9.91562 13.9969 10.2531 13.5125 10.55 12.925C10.6969 12.6375 10.8281 12.3281 10.9469 12.0063C11.4062 12.2531 11.8406 12.5531 12.2406 12.9031C11.4719 13.5781 10.5531 14.0844 9.54375 14.3656ZM12.7375 12.4281C12.2563 12 11.7281 11.6375 11.1656 11.3469C11.4594 10.3313 11.6281 9.1875 11.6562 8H14.625C14.5375 9.70938 13.8375 11.2563 12.7375 12.4281Z" fill="#093DE6"/>
</svg>
