<svg width="40" height="40" viewBox="0 0 40 40" fill="none" xmlns="http://www.w3.org/2000/svg">
<path d="M15 3.125C14.6292 3.125 14.2666 3.23497 13.9583 3.44099C13.65 3.64702 13.4096 3.93986 13.2677 4.28247C13.1258 4.62508 13.0887 5.00208 13.161 5.36579C13.2334 5.72951 13.412 6.0636 13.6742 6.32582C13.9364 6.58805 14.2705 6.76662 14.6342 6.83897C14.9979 6.91132 15.3749 6.87419 15.7175 6.73227C16.0601 6.59036 16.353 6.35004 16.559 6.04169C16.765 5.73335 16.875 5.37084 16.875 5C16.875 4.50272 16.6775 4.02581 16.3258 3.67417C15.9742 3.32254 15.4973 3.125 15 3.125ZM15 5.625C14.8764 5.625 14.7555 5.58834 14.6528 5.51967C14.55 5.45099 14.4699 5.35338 14.4226 5.23918C14.3753 5.12497 14.3629 4.99931 14.387 4.87807C14.4111 4.75683 14.4707 4.64547 14.5581 4.55806C14.6455 4.47065 14.7568 4.41112 14.8781 4.38701C14.9993 4.36289 15.125 4.37527 15.2392 4.42257C15.3534 4.46988 15.451 4.54999 15.5197 4.65277C15.5883 4.75555 15.625 4.87639 15.625 5C15.625 5.16576 15.5592 5.32473 15.4419 5.44194C15.3247 5.55915 15.1658 5.625 15 5.625Z" fill="white"/>
<path d="M6.875 20.625H9.375V21.875H6.875V20.625Z" fill="white"/>
<path d="M10.625 20.625H20V21.875H10.625V20.625Z" fill="white"/>
<path d="M6.875 24.375H9.375V25.625H6.875V24.375Z" fill="white"/>
<path d="M6.875 28.125H9.375V29.375H6.875V28.125Z" fill="white"/>
<path d="M6.875 31.875H9.375V33.125H6.875V31.875Z" fill="white"/>
<path d="M38.125 21.8747H37.5C35.4723 21.8697 33.5001 21.2123 31.875 19.9997L30.375 18.8747C30.2672 18.7926 30.1355 18.7481 30 18.7481C29.8645 18.7481 29.7328 18.7926 29.625 18.8747L28.75 19.531V6.87472C28.7485 6.37789 28.5505 5.90184 28.1992 5.55053C27.8479 5.19922 27.3718 5.0012 26.875 4.99972H21.7625C21.6328 4.6355 21.394 4.3201 21.0786 4.09644C20.7632 3.87277 20.3866 3.75171 20 3.74972H18.5375C18.2798 3.01723 17.8011 2.38279 17.1675 1.93399C16.5338 1.48518 15.7765 1.24414 15 1.24414C14.2235 1.24414 13.4662 1.48518 12.8325 1.93399C12.1989 2.38279 11.7202 3.01723 11.4625 3.74972H10C9.61338 3.75171 9.23675 3.87277 8.92139 4.09644C8.60602 4.3201 8.36723 4.6355 8.2375 4.99972H3.125C2.62818 5.0012 2.15212 5.19922 1.80081 5.55053C1.4495 5.90184 1.25148 6.37789 1.25 6.87472V36.8747C1.25148 37.3715 1.4495 37.8476 1.80081 38.1989C2.15212 38.5502 2.62818 38.7482 3.125 38.7497H26.875C27.1581 38.7479 27.4371 38.6823 27.6914 38.5579C27.9456 38.4335 28.1686 38.2534 28.3437 38.031L29.7312 38.6872C29.8149 38.7283 29.9068 38.7497 30 38.7497C30.0932 38.7497 30.1851 38.7283 30.2687 38.6872L35.7562 36.081C36.6613 35.605 37.4188 34.8903 37.9465 34.0144C38.4743 33.1385 38.7522 32.1348 38.75 31.1122V22.4997C38.75 22.334 38.6842 22.175 38.5669 22.0578C38.4497 21.9406 38.2908 21.8747 38.125 21.8747ZM21.875 6.24972H26.875C27.0408 6.24972 27.1997 6.31556 27.3169 6.43277C27.4342 6.54998 27.5 6.70896 27.5 6.87472V20.431C27.1001 20.6803 26.6823 20.8997 26.25 21.0872V8.12472C26.25 7.95896 26.1842 7.79998 26.0669 7.68277C25.9497 7.56556 25.7908 7.49972 25.625 7.49972H21.875V6.24972ZM9.375 5.62472C9.375 5.45896 9.44085 5.29998 9.55806 5.18277C9.67527 5.06556 9.83424 4.99972 10 4.99972H11.9375C12.082 5.00118 12.2224 4.95196 12.3343 4.8606C12.4462 4.76924 12.5225 4.64154 12.55 4.49972C12.6648 3.93457 12.9714 3.42648 13.4179 3.06153C13.8644 2.69657 14.4233 2.49721 15 2.49721C15.5767 2.49721 16.1356 2.69657 16.5821 3.06153C17.0286 3.42648 17.3352 3.93457 17.45 4.49972C17.4775 4.64154 17.5538 4.76924 17.6657 4.8606C17.7776 4.95196 17.918 5.00118 18.0625 4.99972H20C20.1658 4.99972 20.3247 5.06556 20.4419 5.18277C20.5592 5.29998 20.625 5.45896 20.625 5.62472V8.12472H9.375V5.62472ZM8.75 9.37472H21.25C21.4158 9.37472 21.5747 9.30887 21.6919 9.19166C21.8092 9.07445 21.875 8.91548 21.875 8.74972H25V21.5247C24.1862 21.7533 23.3453 21.8711 22.5 21.8747H21.875C21.7092 21.8747 21.5503 21.9406 21.4331 22.0578C21.3158 22.175 21.25 22.334 21.25 22.4997V24.3747H10.625V25.6247H21.25V28.1247H10.625V29.3747H21.25V31.1122C21.2509 31.3672 21.2676 31.6218 21.3 31.8747H10.625V33.1247H21.6312C21.9009 33.8227 22.3067 34.4601 22.825 34.9997H5V8.74972H8.125C8.125 8.91548 8.19085 9.07445 8.30806 9.19166C8.42527 9.30887 8.58424 9.37472 8.75 9.37472ZM26.875 37.4997H3.125C2.95924 37.4997 2.80027 37.4339 2.68306 37.3167C2.56585 37.1994 2.5 37.0405 2.5 36.8747V6.87472C2.5 6.70896 2.56585 6.54998 2.68306 6.43277C2.80027 6.31556 2.95924 6.24972 3.125 6.24972H8.125V7.49972H4.375C4.20924 7.49972 4.05027 7.56556 3.93306 7.68277C3.81585 7.79998 3.75 7.95896 3.75 8.12472V35.6247C3.75 35.7905 3.81585 35.9494 3.93306 36.0667C4.05027 36.1839 4.20924 36.2497 4.375 36.2497H24.6L27.1125 37.4435C27.0378 37.4775 26.9571 37.4966 26.875 37.4997ZM37.5 31.1122C37.5023 31.9031 37.2887 32.6795 36.8823 33.358C36.4759 34.0364 35.8921 34.5911 35.1937 34.9622L30 37.431L24.8187 34.9685C24.1181 34.5973 23.532 34.0421 23.1234 33.3626C22.7148 32.6831 22.4993 31.9051 22.5 31.1122V23.1247C24.7982 23.1202 27.0337 22.3751 28.875 20.9997L30 20.156L31.125 20.9997C32.9662 22.3751 35.2018 23.1202 37.5 23.1247V31.1122Z" fill="white"/>
<path d="M18.75 13.125H16.875V11.25C16.875 11.0842 16.8092 10.9253 16.6919 10.8081C16.5747 10.6908 16.4158 10.625 16.25 10.625H13.75C13.5842 10.625 13.4253 10.6908 13.3081 10.8081C13.1908 10.9253 13.125 11.0842 13.125 11.25V13.125H11.25C11.0842 13.125 10.9253 13.1908 10.8081 13.3081C10.6908 13.4253 10.625 13.5842 10.625 13.75V16.25C10.625 16.4158 10.6908 16.5747 10.8081 16.6919C10.9253 16.8092 11.0842 16.875 11.25 16.875H13.125V18.75C13.125 18.9158 13.1908 19.0747 13.3081 19.1919C13.4253 19.3092 13.5842 19.375 13.75 19.375H16.25C16.4158 19.375 16.5747 19.3092 16.6919 19.1919C16.8092 19.0747 16.875 18.9158 16.875 18.75V16.875H18.75C18.9158 16.875 19.0747 16.8092 19.1919 16.6919C19.3092 16.5747 19.375 16.4158 19.375 16.25V13.75C19.375 13.5842 19.3092 13.4253 19.1919 13.3081C19.0747 13.1908 18.9158 13.125 18.75 13.125ZM18.125 15.625H16.25C16.0842 15.625 15.9253 15.6908 15.8081 15.8081C15.6908 15.9253 15.625 16.0842 15.625 16.25V18.125H14.375V16.25C14.375 16.0842 14.3092 15.9253 14.1919 15.8081C14.0747 15.6908 13.9158 15.625 13.75 15.625H11.875V14.375H13.75C13.9158 14.375 14.0747 14.3092 14.1919 14.1919C14.3092 14.0747 14.375 13.9158 14.375 13.75V11.875H15.625V13.75C15.625 13.9158 15.6908 14.0747 15.8081 14.1919C15.9253 14.3092 16.0842 14.375 16.25 14.375H18.125V15.625Z" fill="white"/>
<path d="M35.7188 24.2371C33.7804 23.9428 31.9448 23.1742 30.375 21.9996C30.2672 21.9175 30.1355 21.873 30 21.873C29.8645 21.873 29.7328 21.9175 29.625 21.9996C28.0552 23.1742 26.2196 23.9428 24.2812 24.2371C24.1337 24.2605 23.9993 24.3356 23.902 24.449C23.8047 24.5623 23.7508 24.7065 23.75 24.8559V31.1121C23.7502 31.6699 23.8999 32.2175 24.1835 32.6978C24.4671 33.1782 24.8742 33.5738 25.3625 33.8434L25.4 33.8621L29.7312 35.9184C29.8149 35.9595 29.9068 35.9809 30 35.9809C30.0932 35.9809 30.1851 35.9595 30.2688 35.9184L34.6375 33.8434C35.1253 33.5731 35.532 33.1774 35.8155 32.6972C36.099 32.217 36.249 31.6698 36.25 31.1121V24.8559C36.2492 24.7065 36.1953 24.5623 36.098 24.449C36.0007 24.3356 35.8663 24.2605 35.7188 24.2371ZM35 31.1121C35.0017 31.4409 34.9158 31.7643 34.751 32.0488C34.5862 32.3333 34.3486 32.5688 34.0625 32.7309L30 34.6621L25.95 32.7434C25.6615 32.5798 25.4216 32.3426 25.2547 32.056C25.0878 31.7695 24.9999 31.4438 25 31.1121V25.3809C26.7951 25.0309 28.4978 24.3115 30 23.2684C31.5022 24.3115 33.2049 25.0309 35 25.3809V31.1121Z" fill="white"/>
<path d="M27.3172 29.5576L26.4335 30.4414L28.3085 32.3164C28.4257 32.4335 28.5846 32.4994 28.7503 32.4994C28.9161 32.4994 29.075 32.4335 29.1922 32.3164L34.1922 27.3164L33.3085 26.4326L28.7503 30.9907L27.3172 29.5576Z" fill="white"/>
</svg>
