<svg width="10" height="12" viewBox="0 0 10 12" fill="none" xmlns="http://www.w3.org/2000/svg">
<path d="M7.56168 2.36592C7.56168 0.989977 6.91935 0 5.86739 0C5.28929 0 5.09096 0.339195 4.88361 1.12689C4.84135 1.28973 4.8205 1.36918 4.79853 1.44693C4.74162 1.64921 4.64246 1.99348 4.50159 2.47861C4.49775 2.49156 4.49205 2.5039 4.48469 2.51523L2.87041 5.04285C2.48821 5.64055 1.92438 6.09991 1.26177 6.35343L0.99526 6.45542C0.654964 6.58576 0.371493 6.83186 0.194663 7.15049C0.0178329 7.46911 -0.0410421 7.83987 0.0283844 8.1976L0.256017 9.37295C0.32263 9.71653 0.486306 10.0338 0.727664 10.2873C0.969021 10.5407 1.27795 10.7197 1.61787 10.803L5.91585 11.8566C6.60105 12.0245 7.32481 11.915 7.92973 11.5521C8.53465 11.1891 8.97179 10.602 9.14609 9.91837L9.94337 6.79123C10.0122 6.52088 10.0184 6.23837 9.96138 5.96527C9.90439 5.69217 9.78576 5.4357 9.61453 5.21544C9.4433 4.99519 9.22402 4.81696 8.97341 4.69438C8.7228 4.5718 8.44749 4.5081 8.16851 4.50814H7.14191C7.42138 3.58803 7.56224 2.87809 7.56224 2.36592H7.56168ZM0.856652 8.03701C0.825016 7.87436 0.851739 7.70577 0.932121 7.56087C1.0125 7.41598 1.1414 7.30406 1.29614 7.24481L1.56322 7.14339C2.39466 6.82501 3.10207 6.24834 3.58148 5.49812L5.19689 2.97049C5.2476 2.89105 5.28648 2.80484 5.31239 2.71413C5.45438 2.22674 5.55355 1.88079 5.61102 1.67569C5.63581 1.58949 5.65891 1.50215 5.70061 1.34213C5.80766 0.935323 5.86006 0.845171 5.86683 0.845171C6.3559 0.845171 6.71594 1.3996 6.71594 2.36648C6.71594 2.86457 6.53226 3.68213 6.16151 4.79719C6.14036 4.86069 6.1346 4.9283 6.14469 4.99445C6.15478 5.06061 6.18044 5.12343 6.21956 5.17773C6.25867 5.23203 6.31013 5.27627 6.36969 5.30679C6.42924 5.33732 6.4952 5.35326 6.56212 5.35331H8.16795C8.31813 5.35341 8.46632 5.38779 8.6012 5.45384C8.73608 5.51989 8.85411 5.61587 8.94628 5.73445C9.03844 5.85303 9.10232 5.99108 9.13304 6.13809C9.16377 6.2851 9.16052 6.43719 9.12355 6.58276L8.32627 9.70989C8.20694 10.1776 7.90777 10.5793 7.49383 10.8275C7.07989 11.0758 6.58467 11.1506 6.11587 11.0357L1.81789 9.98203C1.63495 9.93716 1.46869 9.84083 1.33879 9.70443C1.20888 9.56803 1.12076 9.39727 1.08485 9.21237L0.856652 8.03701Z" fill="#093DE6"/>
</svg>
