<svg width="179" height="48" viewBox="0 0 179 48" fill="none" xmlns="http://www.w3.org/2000/svg">
<path d="M30.0144 7.70752C32.6191 11.6956 34.1517 17.7831 34.1517 23.8707C34.1517 29.1543 32.9966 34.4341 30.9883 38.348" stroke="black" stroke-miterlimit="10"/>
<path d="M15.0209 38.0515C14.6509 37.2944 14.3074 36.4867 14.0016 35.6399C12.737 32.1591 12.0387 28.0149 12.0387 23.8707C12.0387 17.7831 13.5449 11.6956 16.142 7.70752" stroke="black" stroke-miterlimit="10"/>
<path d="M42.9605 27.2047C44.7413 15.8617 37.2897 5.17396 26.3169 3.33305C15.3441 1.49215 5.00527 9.19517 3.22445 20.5382C1.44364 31.8813 8.89521 42.569 19.868 44.4099C30.8408 46.2508 41.1797 38.5478 42.9605 27.2047Z" stroke="black" stroke-miterlimit="10"/>
<path d="M19.528 13.4944C20.6113 13.5608 21.7778 13.5998 23.0386 13.5998C30.3921 13.5998 34.6916 12.3042 36.8131 11.3872" stroke="black" stroke-miterlimit="10"/>
<path d="M19.528 34.2548C20.6113 34.1884 21.7778 34.1494 23.0386 34.1494C30.3921 34.1494 34.6916 35.445 36.8131 36.362" stroke="black" stroke-miterlimit="10"/>
<path d="M19.528 23.8745H38.9082" stroke="black" stroke-miterlimit="10"/>
<path d="M23.0917 6.72803V38.0514" stroke="black" stroke-miterlimit="10"/>
<path d="M7.01416 15.0747C7.01416 15.0747 8.8261 15.3674 9.75472 16.4015C10.6871 17.4356 10.8494 18.9028 10.8796 19.1994C10.0454 19.1096 8.74683 18.8053 7.97298 17.9038C7.2029 17.0024 7.09343 15.9449 7.01416 15.0747Z" fill="#97C638"/>
<path d="M5.41016 27.7802C5.41016 27.7802 7.53164 27.5851 8.85662 28.4787C10.1854 29.3724 10.7667 30.9801 10.88 31.304C9.91736 31.4445 8.36966 31.4757 7.25607 30.6874C6.14248 29.8953 5.7348 28.7402 5.41016 27.7802Z" fill="#97C638"/>
<path d="M5.79541 21.486C5.79541 21.486 7.71305 21.4509 8.85306 22.3484C9.99308 23.242 10.4121 24.7249 10.4951 25.0254C9.61936 25.0878 8.22643 25.0137 7.27516 24.2254C6.32012 23.4372 6.02945 22.3679 5.79541 21.486Z" fill="#97C638"/>
<path d="M18.962 4.55811C18.962 4.55811 18.8224 5.96682 18.1127 6.72386C17.403 7.4809 16.3536 7.6643 16.1384 7.69942C16.1686 7.05165 16.3385 6.04096 16.9576 5.4088C17.5804 4.77663 18.3392 4.65176 18.962 4.55811Z" fill="#97C638"/>
<path d="M14.6588 14.5048C14.6588 14.5048 15.2213 13.0766 16.1876 12.5069C17.154 11.9371 18.3091 12.0776 18.5432 12.1127C18.3204 12.78 17.841 13.7868 17.0068 14.2512C16.1688 14.7155 15.3383 14.6024 14.6588 14.5048Z" fill="#97C638"/>
<path d="M13.4617 19.7262C13.4617 19.7262 14.53 18.1536 15.8587 17.7478C17.1875 17.338 18.5502 17.8453 18.822 17.9507C18.369 18.696 17.5197 19.777 16.3797 20.0969C15.2396 20.4169 14.2619 20.0423 13.4617 19.7262Z" fill="#97C638"/>
<path d="M13.4617 25.1115C13.4617 25.1115 14.53 23.5389 15.8587 23.133C17.1875 22.7233 18.5502 23.2306 18.822 23.336C18.369 24.0813 17.5197 25.1622 16.3797 25.4822C15.2396 25.8022 14.2619 25.4276 13.4617 25.1115Z" fill="#97C638"/>
<path d="M14.2698 31.2027C14.2698 31.2027 15.4287 29.5014 16.8669 29.0565C18.3051 28.6155 19.7849 29.1619 20.0793 29.2789C19.5886 30.0867 18.6637 31.2574 17.4294 31.6086C16.1987 31.952 15.138 31.5461 14.2698 31.2027Z" fill="#97C638"/>
<path d="M12.0656 13.8026C12.0656 13.8026 10.6689 13.2563 10.0951 12.269C9.52131 11.2817 9.63078 10.0876 9.65343 9.8457C10.3027 10.0603 11.288 10.5286 11.756 11.3793C12.2317 12.2378 12.1449 13.0963 12.0656 13.8026Z" fill="#97C638"/>
<path d="M7.62957 37.2941C6.21022 35.5771 6.28572 33.2358 7.33136 33.4699C8.377 33.7001 10.4305 35.5537 12.669 37.1146C14.9075 38.6755 18.9391 39.893 21.7363 40.0062C20.4491 39.6004 17.9312 37.8639 16.8667 36.822C15.8022 35.78 16.3646 34.6796 17.3386 34.9137C18.3125 35.144 21.8495 38.4999 27.3911 38.9643C32.9288 39.4287 37.5719 34.8591 39.0856 32.1392C40.5956 29.4194 43.1021 24.0264 39.9123 15.6561C36.9113 7.77744 32.1663 5.93948 30.3657 5.08879C26.2813 3.19229 23.0915 3.10254 23.0915 3.10254C26.8362 3.10254 28.7878 3.85958 31.0603 4.80002C37.436 7.43405 43.4532 14.2981 43.4532 23.5933C43.4532 35.2962 34.3368 44.6421 23.0915 44.6421C17.297 44.6421 12.0688 42.1407 8.3619 38.1253L7.62957 37.2941Z" fill="#093DE6"/>
<path d="M31.9472 37.2162L31.2791 36.904C32.8947 33.1774 33.7856 28.561 33.7856 23.9056C33.7856 17.8259 32.2606 11.8632 29.7087 7.95318L30.3165 7.52783C32.9476 11.5589 34.5179 17.6776 34.5179 23.9017C34.5179 28.6664 33.6044 33.3959 31.9472 37.2162Z" fill="#093DE6"/>
<path d="M13.6579 35.8112C12.7256 33.1186 11.6535 29.0017 11.6724 23.9093C11.6988 16.9515 13.7561 11.6093 15.1188 8.71777C15.3566 8.83094 15.5907 8.9441 15.8285 9.05727C14.4884 11.863 12.4462 17.0881 12.4047 23.9054C12.3783 28.8924 13.4315 32.9196 14.345 35.5419L13.6579 35.8112Z" fill="#093DE6"/>
<path d="M23.0387 14.0131C21.8231 14.0131 20.6341 13.978 19.5054 13.9077L19.5507 13.1507C20.668 13.2209 21.842 13.2561 23.0387 13.2561C30.5091 13.2561 34.7861 11.8864 36.6735 11.0708L36.9566 11.7693C34.5936 12.7956 30.2562 14.0131 23.0387 14.0131Z" fill="#093DE6"/>
<path d="M34.5483 35.9831C31.4076 35.0427 27.5345 34.5627 23.0387 34.5627C21.8382 34.5627 20.6643 34.5978 19.5507 34.6681L19.5054 33.911C20.6341 33.8408 21.8231 33.8057 23.0387 33.8057C27.6025 33.8057 31.5435 34.2934 34.7521 35.2534L34.5483 35.9831Z" fill="#093DE6"/>
<path d="M38.9084 23.5308H19.5282V24.2878H38.9084V23.5308Z" fill="#093DE6"/>
<path d="M23.4542 6.7627H22.7219V36.9818H23.4542V6.7627Z" fill="#093DE6"/>
<path d="M55.6765 5.53369H68.6961V8.24186H58.7983V16.5459H67.9411V19.215H58.7983V30.5238H55.6765V5.53369Z" fill="#093DE6"/>
<path d="M86.3018 25.6263C86.3018 27.4799 86.3396 29.111 86.4453 30.5197H83.6481L83.4707 27.593H83.399C82.576 29.0408 80.7452 30.9295 77.6611 30.9295C74.9357 30.9295 71.6704 29.3725 71.6704 23.0703V12.5771H74.8262V22.5123C74.8262 25.9229 75.8303 28.2213 78.6992 28.2213C80.8132 28.2213 82.2854 26.6994 82.8592 25.2556C83.0403 24.7756 83.146 24.1825 83.146 23.5893V12.5771H86.3018V25.6263Z" fill="#093DE6"/>
<path d="M91.538 4.19922H94.6938V30.52H91.538V4.19922Z" fill="#093DE6"/>
<path d="M100.001 4.19922H103.157V30.52H100.001V4.19922Z" fill="#093DE6"/>
<path d="M120.838 29.8526C120.012 30.2974 118.185 30.8906 115.852 30.8906C110.616 30.8906 107.211 27.2185 107.211 21.732C107.211 16.2064 110.869 12.2026 116.535 12.2026C118.4 12.2026 120.049 12.6826 120.91 13.1314L120.193 15.6522C119.442 15.2074 118.256 14.8015 116.535 14.8015C112.556 14.8015 110.401 17.8414 110.401 21.5837C110.401 25.7357 112.983 28.2956 116.426 28.2956C118.219 28.2956 119.4 27.8156 120.299 27.4058L120.838 29.8526Z" fill="#093DE6"/>
<path d="M134.141 30.5198L133.889 28.2604H133.779C132.809 29.6691 130.948 30.9295 128.472 30.9295C124.957 30.9295 123.164 28.3697 123.164 25.7747C123.164 21.4353 126.894 19.0628 133.602 19.1018V18.7311C133.602 17.2482 133.209 14.5791 129.657 14.5791C128.041 14.5791 126.358 15.0981 125.138 15.9137L124.421 13.7635C125.856 12.7997 127.936 12.1714 130.121 12.1714C135.429 12.1714 136.72 15.9137 136.72 19.5115V26.2234C136.72 27.7804 136.791 29.3023 137.007 30.5237H134.141V30.5198ZM133.677 21.3651C130.234 21.291 126.327 21.9231 126.327 25.4039C126.327 27.519 127.69 28.5179 129.302 28.5179C131.563 28.5179 132.998 27.0351 133.5 25.5132C133.609 25.1815 133.677 24.8069 133.677 24.4752V21.3651Z" fill="#093DE6"/>
<path d="M141.815 18.177C141.815 16.0619 141.778 14.2474 141.672 12.5772H144.435L144.545 16.0971H144.688C145.477 13.6894 147.376 12.1675 149.494 12.1675C149.852 12.1675 150.101 12.2026 150.392 12.2767V15.3595C150.067 15.2854 149.746 15.2464 149.316 15.2464C147.093 15.2464 145.515 16.9907 145.084 19.4374C145.013 19.8822 144.941 20.4012 144.941 20.9593V30.5237H141.823V18.177H141.815Z" fill="#093DE6"/>
<path d="M154.941 22.1417C155.013 26.5551 157.738 28.3696 160.894 28.3696C163.155 28.3696 164.514 27.9638 165.699 27.4409L166.235 29.7745C165.122 30.2935 163.223 30.8866 160.463 30.8866C155.118 30.8866 151.928 27.2536 151.928 21.8412C151.928 16.4287 155.013 12.1675 160.071 12.1675C165.737 12.1675 167.243 17.3224 167.243 20.6198C167.243 21.2871 167.171 21.8061 167.134 22.1417H154.941ZM164.193 19.8081C164.227 17.7321 163.366 14.5088 159.818 14.5088C156.624 14.5088 155.228 17.5487 154.975 19.8081H164.193Z" fill="#093DE6"/>
<path d="M69.1451 38.937V43.9319H68.5222V38.937H69.1451Z" fill="#093DE6"/>
<path d="M71.4557 43.9358V38.9409H72.1352L73.6829 41.4696C74.0415 42.0549 74.3208 42.5817 74.5511 43.0929L74.5662 43.0851C74.5096 42.4178 74.4945 41.8091 74.4945 41.0325V38.9409H75.0834V43.9358H74.4529L72.9166 41.3993C72.5806 40.8452 72.256 40.2716 72.0144 39.7331L71.9917 39.7409C72.0257 40.373 72.0408 40.9701 72.0408 41.8013V43.9358H71.4557Z" fill="#093DE6"/>
<path d="M77.31 43.1475C77.5894 43.327 77.9971 43.4753 78.4274 43.4753C79.0654 43.4753 79.4391 43.128 79.4391 42.6246C79.4391 42.1563 79.1824 41.8909 78.5293 41.6295C77.7404 41.3407 77.2534 40.9193 77.2534 40.213C77.2534 39.4364 77.8763 38.855 78.8162 38.855C79.3107 38.855 79.6694 38.972 79.8845 39.1008L79.7109 39.6276C79.5523 39.5379 79.2315 39.3896 78.7936 39.3896C78.133 39.3896 77.8838 39.7954 77.8838 40.1388C77.8838 40.6071 78.1783 40.8373 78.8464 41.1027C79.6656 41.4305 80.0808 41.8363 80.0808 42.5699C80.0808 43.3426 79.5297 44.0099 78.3897 44.0099C77.9254 44.0099 77.4157 43.8694 77.1553 43.6899L77.31 43.1475Z" fill="#093DE6"/>
<path d="M82.7725 38.937V41.8949C82.7725 43.0149 83.2519 43.487 83.8974 43.487C84.6146 43.487 85.0752 42.9993 85.0752 41.8949V38.937H85.7056V41.852C85.7056 43.3856 84.9242 44.0178 83.8785 44.0178C82.8895 44.0178 82.1421 43.4324 82.1421 41.8832V38.9409H82.7725V38.937Z" fill="#093DE6"/>
<path d="M88.0081 39.0033C88.3251 38.937 88.7744 38.8979 89.2047 38.8979C89.8729 38.8979 90.3032 39.0228 90.6052 39.3038C90.8505 39.5262 90.9864 39.8657 90.9864 40.252C90.9864 40.9115 90.5863 41.3486 90.0767 41.5281V41.5515C90.4504 41.6842 90.6731 42.0393 90.7864 42.5583C90.9449 43.2568 91.0582 43.7367 91.1601 43.928H90.5146C90.4353 43.7875 90.3296 43.3582 90.1937 42.7339C90.0503 42.0432 89.7936 41.7856 89.2273 41.7622H88.6385V43.928H88.0156V39.0033H88.0081ZM88.6347 41.2822H89.2726C89.9408 41.2822 90.3636 40.9037 90.3636 40.334C90.3636 39.6901 89.9106 39.4052 89.2538 39.4013C88.9518 39.4013 88.7366 39.4326 88.6385 39.4599V41.2822H88.6347Z" fill="#093DE6"/>
<path d="M93.9044 42.3632L93.4023 43.9358H92.7568L94.3989 38.9409H95.1501L96.7997 43.9358H96.1316L95.6144 42.3632H93.9044ZM95.4898 41.8598L95.018 40.4199C94.9123 40.0921 94.8368 39.7955 94.7651 39.5067H94.75C94.6782 39.8033 94.599 40.1077 94.5046 40.4121L94.0327 41.8559H95.4898V41.8598Z" fill="#093DE6"/>
<path d="M98.7327 43.9358V38.9409H99.4121L100.96 41.4696C101.318 42.0549 101.598 42.5817 101.828 43.0929L101.843 43.0851C101.787 42.4178 101.771 41.8091 101.771 41.0325V38.9409H102.36V43.9358H101.73L100.194 41.3993C99.8576 40.8452 99.5329 40.2716 99.2913 39.7331L99.2687 39.7409C99.3027 40.373 99.3178 40.9701 99.3178 41.8013V43.9358H98.7327Z" fill="#093DE6"/>
<path d="M108.049 43.7718C107.819 43.8889 107.362 44.0099 106.773 44.0099C105.41 44.0099 104.384 43.1202 104.384 41.4812C104.384 39.9164 105.41 38.855 106.909 38.855C107.513 38.855 107.891 38.9877 108.057 39.0774L107.906 39.6042C107.668 39.4871 107.332 39.3974 106.932 39.3974C105.799 39.3974 105.044 40.1466 105.044 41.4578C105.044 42.6792 105.724 43.4675 106.902 43.4675C107.283 43.4675 107.668 43.3855 107.921 43.2606L108.049 43.7718Z" fill="#093DE6"/>
<path d="M112.553 41.5906H110.673V43.3934H112.768V43.9358H110.05V38.9409H112.658V39.4833H110.673V41.0637H112.553V41.5906Z" fill="#093DE6"/>
<path d="M117.452 43.1475C117.732 43.327 118.139 43.4753 118.57 43.4753C119.208 43.4753 119.581 43.128 119.581 42.6246C119.581 42.1563 119.325 41.8909 118.672 41.6295C117.883 41.3407 117.396 40.9193 117.396 40.213C117.396 39.4364 118.019 38.855 118.959 38.855C119.453 38.855 119.812 38.972 120.027 39.1008L119.853 39.6276C119.695 39.5379 119.374 39.3896 118.936 39.3896C118.275 39.3896 118.026 39.7954 118.026 40.1388C118.026 40.6071 118.321 40.8373 118.985 41.1027C119.804 41.4305 120.219 41.8363 120.219 42.5699C120.219 43.3426 119.668 44.0099 118.528 44.0099C118.06 44.0099 117.554 43.8694 117.294 43.6899L117.452 43.1475Z" fill="#093DE6"/>
<path d="M124.794 41.5906H122.914V43.3934H125.009V43.9358H122.291V38.9409H124.904V39.4833H122.918V41.0637H124.798V41.5906H124.794Z" fill="#093DE6"/>
<path d="M127.041 39.0033C127.358 38.937 127.807 38.8979 128.237 38.8979C128.905 38.8979 129.336 39.0228 129.638 39.3038C129.883 39.5262 130.019 39.8657 130.019 40.252C130.019 40.9115 129.619 41.3486 129.109 41.5281V41.5515C129.483 41.6842 129.706 42.0393 129.819 42.5583C129.977 43.2568 130.091 43.7367 130.193 43.928H129.547C129.468 43.7875 129.362 43.3582 129.226 42.7339C129.083 42.0432 128.826 41.7856 128.26 41.7622H127.671V43.928H127.048V39.0033H127.041ZM127.663 41.2822H128.301C128.969 41.2822 129.392 40.9037 129.392 40.334C129.392 39.6901 128.939 39.4052 128.282 39.4013C127.98 39.4013 127.765 39.4326 127.667 39.4599V41.2822H127.663Z" fill="#093DE6"/>
<path d="M133.295 43.9358L131.718 38.9409H132.393L133.144 41.4032C133.352 42.0783 133.533 42.6871 133.662 43.2724H133.677C133.813 42.6949 134.013 42.0627 134.228 41.4111L135.047 38.9409H135.715L133.986 43.9358H133.295Z" fill="#093DE6"/>
<path d="M138.078 38.937V43.9319H137.456V38.937H138.078Z" fill="#093DE6"/>
<path d="M143.767 43.7718C143.536 43.8889 143.08 44.0099 142.491 44.0099C141.128 44.0099 140.101 43.1202 140.101 41.4812C140.101 39.9164 141.128 38.855 142.627 38.855C143.231 38.855 143.608 38.9877 143.774 39.0774L143.623 39.6042C143.385 39.4871 143.05 39.3974 142.649 39.3974C141.517 39.3974 140.762 40.1466 140.762 41.4578C140.762 42.6792 141.441 43.4675 142.619 43.4675C143 43.4675 143.385 43.3855 143.638 43.2606L143.767 43.7718Z" fill="#093DE6"/>
<path d="M148.27 41.5906H146.39V43.3934H148.485V43.9358H145.767V38.9409H148.38V39.4833H146.394V41.0637H148.274V41.5906H148.27Z" fill="#093DE6"/>
<path d="M150.429 43.1475C150.709 43.327 151.116 43.4753 151.547 43.4753C152.185 43.4753 152.558 43.128 152.558 42.6246C152.558 42.1563 152.298 41.8909 151.649 41.6295C150.86 41.3407 150.373 40.9193 150.373 40.213C150.373 39.4364 150.996 38.855 151.935 38.855C152.43 38.855 152.789 38.972 153.004 39.1008L152.83 39.6276C152.672 39.5379 152.351 39.3896 151.913 39.3896C151.252 39.3896 151.003 39.7954 151.003 40.1388C151.003 40.6071 151.298 40.8373 151.962 41.1027C152.781 41.4305 153.196 41.8363 153.196 42.5699C153.196 43.3426 152.645 44.0099 151.505 44.0099C151.041 44.0099 150.531 43.8694 150.271 43.6899L150.429 43.1475Z" fill="#093DE6"/>
<path d="M176.605 28.2603C176.669 28.2603 176.737 28.2603 176.801 28.2603C176.827 28.2642 176.85 28.2681 176.876 28.2681C177.012 28.2798 177.141 28.3032 177.273 28.3422C177.59 28.4359 177.869 28.6037 178.111 28.8339C178.288 29.0056 178.435 29.2046 178.545 29.4309C178.677 29.6963 178.749 29.9773 178.768 30.2738C178.779 30.4728 178.764 30.6719 178.722 30.867C178.677 31.0738 178.605 31.2689 178.507 31.4523C178.405 31.6435 178.273 31.8113 178.122 31.9635C177.915 32.1664 177.68 32.3186 177.412 32.4201C177.246 32.4825 177.076 32.5254 176.899 32.541C176.752 32.5567 176.608 32.5567 176.461 32.5371C176.333 32.5215 176.204 32.4942 176.08 32.4552C175.838 32.3771 175.619 32.2601 175.419 32.0962C175.268 31.9752 175.136 31.8347 175.023 31.6786C174.879 31.4796 174.774 31.2611 174.706 31.027C174.664 30.8865 174.634 30.7382 174.627 30.5899C174.623 30.5626 174.619 30.5353 174.619 30.508C174.619 30.4416 174.619 30.3753 174.619 30.3089C174.619 30.3011 174.623 30.2972 174.623 30.2894C174.627 30.1724 174.642 30.0592 174.668 29.946C174.732 29.6378 174.857 29.3607 175.042 29.1109C175.204 28.8885 175.4 28.709 175.627 28.5646C175.902 28.3929 176.197 28.2954 176.518 28.2642C176.548 28.2642 176.574 28.2642 176.605 28.2603ZM178.454 30.3987C178.451 29.4036 177.677 28.6076 176.725 28.5919C175.733 28.5763 174.944 29.4036 174.94 30.4026C174.936 31.4094 175.721 32.2133 176.673 32.225C177.662 32.2406 178.462 31.4094 178.454 30.3987Z" fill="#093DE6"/>
<path d="M177.56 31.3979C177.454 31.3979 177.352 31.3979 177.25 31.3979C177.242 31.3979 177.235 31.3901 177.231 31.3862C177.088 31.1559 176.944 30.9257 176.805 30.6955C176.793 30.6799 176.786 30.6721 176.763 30.6721C176.638 30.6721 176.518 30.6721 176.393 30.6721C176.386 30.6721 176.382 30.6721 176.37 30.6721C176.37 30.914 176.37 31.1559 176.37 31.3979C176.265 31.3979 176.159 31.3979 176.053 31.3979C176.053 30.7384 176.053 30.0789 176.053 29.4155C176.061 29.4155 176.068 29.4155 176.076 29.4155C176.352 29.4155 176.627 29.4155 176.903 29.4155C177.057 29.4155 177.205 29.4506 177.341 29.5326C177.469 29.6106 177.552 29.7238 177.578 29.8799C177.605 30.0165 177.597 30.1531 177.56 30.2857C177.537 30.3677 177.488 30.4301 177.431 30.4848C177.363 30.5511 177.28 30.5901 177.193 30.6174C177.159 30.6291 177.125 30.6369 177.088 30.6486C177.25 30.8984 177.405 31.1481 177.56 31.3979ZM176.378 30.395C176.389 30.395 176.401 30.395 176.408 30.395C176.521 30.395 176.631 30.3911 176.744 30.395C176.854 30.3989 176.959 30.3833 177.065 30.3482C177.156 30.317 177.22 30.2623 177.258 30.1765C177.292 30.1023 177.292 30.0243 177.28 29.9462C177.273 29.8916 177.25 29.8448 177.208 29.8097C177.175 29.7823 177.137 29.755 177.095 29.7316C177.031 29.6926 176.956 29.6887 176.884 29.6848C176.718 29.677 176.555 29.6809 176.389 29.6809C176.386 29.6809 176.382 29.6809 176.378 29.6809C176.378 29.9189 176.378 30.1531 176.378 30.395Z" fill="#093DE6"/>
</svg>
