<svg width="11" height="14" viewBox="0 0 11 14" fill="none" xmlns="http://www.w3.org/2000/svg">
<path d="M5.33333 6.6665C4.6 6.6665 4 6.06652 4 5.3332C4 4.59989 4.6 3.9999 5.33333 3.9999C6.06666 3.9999 6.66666 4.59989 6.66666 5.3332C6.66666 6.06652 6.06666 6.6665 5.33333 6.6665ZM9.33332 5.46653C9.33332 3.04659 7.56666 1.3333 5.33333 1.3333C3.1 1.3333 1.33333 3.04659 1.33333 5.46653C1.33333 7.02649 2.63333 9.09311 5.33333 11.5597C8.03333 9.09311 9.33332 7.02649 9.33332 5.46653ZM5.33333 0C8.13333 0 10.6667 2.14661 10.6667 5.46653C10.6667 7.67981 8.88666 10.2997 5.33333 13.333C1.78 10.2997 0 7.67981 0 5.46653C0 2.14661 2.53333 0 5.33333 0Z" fill="#9A9A9A"/>
</svg>
