<svg width="37" height="37" viewBox="0 0 37 37" fill="none" xmlns="http://www.w3.org/2000/svg">
<path d="M29.3093 23.1583C28.5723 22.3909 27.6833 21.9806 26.7411 21.9806C25.8066 21.9806 24.91 22.3833 24.1426 23.1507L21.7416 25.5441C21.5441 25.4378 21.3465 25.339 21.1566 25.2402C20.883 25.1034 20.6247 24.9743 20.4044 24.8375C18.1553 23.4091 16.1115 21.5476 14.1512 19.139C13.2014 17.9385 12.5632 16.9279 12.0997 15.9022C12.7227 15.3324 13.3002 14.7397 13.8624 14.1699C14.0752 13.9571 14.2879 13.7368 14.5007 13.524C16.0963 11.9284 16.0963 9.86176 14.5007 8.26617L12.4264 6.19191C12.1909 5.95637 11.9477 5.71323 11.7198 5.47009C11.2639 4.99901 10.7852 4.51274 10.2913 4.05685C9.55434 3.32744 8.67297 2.93994 7.746 2.93994C6.81904 2.93994 5.92247 3.32744 5.16267 4.05685C5.15507 4.06445 5.15507 4.06445 5.14747 4.07205L2.56414 6.67818C1.59159 7.65073 1.03693 8.83603 0.915359 10.2113C0.733006 12.4299 1.38644 14.4966 1.88791 15.849C3.11879 19.1694 4.95752 22.2466 7.70042 25.5441C11.0284 29.5179 15.0325 32.6559 19.6066 34.8669C21.3541 35.6951 23.6867 36.6753 26.2928 36.8424C26.4524 36.85 26.6196 36.8576 26.7715 36.8576C28.5267 36.8576 30.0007 36.227 31.1556 34.9733C31.1632 34.9581 31.1784 34.9505 31.186 34.9353C31.5811 34.4566 32.037 34.0235 32.5156 33.5601C32.8424 33.2485 33.1767 32.9218 33.5034 32.5799C34.2556 31.7973 34.6507 30.8856 34.6507 29.951C34.6507 29.0088 34.248 28.1047 33.4806 27.3449L29.3093 23.1583ZM32.0294 31.1591C32.0218 31.1591 32.0218 31.1667 32.0294 31.1591C31.733 31.4782 31.4291 31.7669 31.1024 32.086C30.6085 32.5571 30.1071 33.051 29.636 33.6057C28.8686 34.4262 27.9644 34.8137 26.7791 34.8137C26.6651 34.8137 26.5436 34.8137 26.4296 34.8061C24.173 34.6618 22.0759 33.7804 20.5031 33.0282C16.2026 30.9463 12.4264 27.9907 9.28841 24.2449C6.69747 21.1221 4.96512 18.2348 3.81781 15.1348C3.11119 13.2429 2.85286 11.7689 2.96683 10.3784C3.04281 9.48946 3.38472 8.75245 4.01536 8.12181L6.6063 5.53087C6.9786 5.18137 7.3737 4.99141 7.7612 4.99141C8.23988 4.99141 8.62738 5.28014 8.87051 5.52328C8.87811 5.53088 8.88571 5.53847 8.89331 5.54607C9.35679 5.97916 9.79748 6.42744 10.261 6.90612C10.4965 7.14926 10.7396 7.3924 10.9828 7.64313L13.057 9.7174C13.8624 10.5228 13.8624 11.2674 13.057 12.0728C12.8367 12.2931 12.6239 12.5135 12.4036 12.7262C11.7654 13.3797 11.1575 13.9875 10.4965 14.5801C10.4813 14.5953 10.4661 14.6029 10.4585 14.6181C9.80507 15.2716 9.92664 15.9098 10.0634 16.3429C10.071 16.3657 10.0786 16.3885 10.0862 16.4113C10.6257 17.7181 11.3855 18.949 12.5404 20.4154L12.548 20.423C14.645 23.0064 16.8561 25.0199 19.295 26.5623C19.6066 26.7598 19.9257 26.9194 20.2296 27.0713C20.5031 27.2081 20.7615 27.3373 20.9818 27.474C21.0122 27.4892 21.0426 27.512 21.073 27.5272C21.3313 27.6564 21.5744 27.7172 21.8252 27.7172C22.4558 27.7172 22.8509 27.3221 22.9801 27.1929L25.5786 24.5944C25.837 24.336 26.2472 24.0245 26.7259 24.0245C27.197 24.0245 27.5845 24.3208 27.82 24.5792C27.8276 24.5868 27.8276 24.5868 27.8352 24.5944L32.0218 28.7809C32.8044 29.5559 32.8044 30.3537 32.0294 31.1591Z" fill="white"/>
<path d="M20.3127 9.42117C22.3034 9.75548 24.1117 10.6976 25.5553 12.1413C26.999 13.5849 27.9335 15.3932 28.2754 17.3839C28.359 17.8854 28.7921 18.2349 29.286 18.2349C29.3468 18.2349 29.3999 18.2273 29.4607 18.2197C30.023 18.1285 30.3953 17.5967 30.3041 17.0344C29.8938 14.6258 28.7541 12.43 27.0142 10.69C25.2742 8.95009 23.0784 7.81038 20.6698 7.40009C20.1075 7.30891 19.5833 7.68121 19.4845 8.23587C19.3857 8.79053 19.7504 9.32999 20.3127 9.42117Z" fill="white"/>
<path d="M36.8158 16.7377C36.1396 12.7715 34.2704 9.16241 31.3984 6.29034C28.5263 3.41828 24.9172 1.54916 20.9511 0.872938C20.3964 0.774163 19.8721 1.15407 19.7734 1.70872C19.6822 2.27098 20.0545 2.79524 20.6168 2.89402C24.1574 3.49426 27.3866 5.17343 29.9548 7.73397C32.5229 10.3021 34.1945 13.5313 34.7947 17.072C34.8783 17.5734 35.3114 17.923 35.8052 17.923C35.866 17.923 35.9192 17.9154 35.98 17.9078C36.5347 17.8242 36.9146 17.2923 36.8158 16.7377Z" fill="white"/>
</svg>
