<svg width="25" height="22" viewBox="0 0 25 22" fill="none" xmlns="http://www.w3.org/2000/svg">
<path d="M18.9613 0L18.6089 1.6886C18.2518 1.74478 17.9037 1.84807 17.5737 1.99575L16.3606 0.770229L14.9791 1.88817L15.924 3.33198C15.7135 3.62077 15.5416 3.93831 15.411 4.27996L13.685 4.27217L13.4994 6.04029L15.1881 6.39267C15.2448 6.75369 15.3495 7.09885 15.4952 7.42485L14.2697 8.64102L15.3876 10.0225L16.8314 9.07602C17.1233 9.2887 17.4421 9.46172 17.7794 9.59056L17.7716 11.315L19.5398 11.5005L19.8906 9.81192C20.2519 9.75521 20.5996 9.65221 20.9259 9.50631L22.1405 10.7318L23.5219 9.61235L22.5755 8.17008C22.7882 7.87826 22.9612 7.55948 23.09 7.2221L24.8145 7.22835L25 5.46023L23.3114 5.11096C23.2546 4.74942 23.1518 4.40048 23.0058 4.07408L24.2313 2.86102L23.1118 1.47958L21.6695 2.42446C21.3806 2.21381 21.0618 2.04054 20.72 1.90994L20.7278 0.185479L18.9613 0ZM19.2544 4.1069C19.31 4.10708 19.3663 4.10877 19.4228 4.11469C20.326 4.20958 20.9802 5.01852 20.8853 5.92179C20.7904 6.82502 19.9815 7.48075 19.0782 7.38583C18.175 7.29094 17.5193 6.482 17.6141 5.57877C17.7031 4.73196 18.4209 4.104 19.2544 4.1069ZM6.56729 4.2519L6.33031 6.60004C5.84688 6.72894 5.38896 6.91929 4.96602 7.16446L3.13865 5.67079L1.41885 7.39058L2.91256 9.2195C2.6674 9.64258 2.47694 10.1002 2.34815 10.5837L0 10.8192V13.2515L2.34812 13.4885C2.47518 13.9657 2.66497 14.4239 2.91254 14.8512L1.41883 16.6801L3.13863 18.3999L4.96756 16.9062C5.39485 17.1538 5.85309 17.3436 6.33029 17.4707L6.56727 19.8188H8.9996L9.23504 17.4707C9.71863 17.3419 10.1763 17.1514 10.5993 16.9062L12.4282 18.3999L14.148 16.6801L12.6543 14.8528C12.8995 14.4298 13.0899 13.9719 13.2187 13.4885L15.5669 13.2515V10.8192L13.2188 10.5837C13.0899 10.0999 12.8997 9.64117 12.6543 9.21788L14.148 7.3905L12.4282 5.67073L10.6009 7.1644C10.1776 6.91908 9.71887 6.72887 9.235 6.59996L8.99956 4.25183H6.56729V4.2519ZM7.78346 9.78544C9.02615 9.78544 10.0334 10.7927 10.0334 12.0354C10.0334 13.278 9.02615 14.2852 7.78346 14.2852C6.54079 14.2852 5.53354 13.278 5.53354 12.0354C5.53354 10.7927 6.54079 9.78544 7.78346 9.78544ZM18.11 12.79L17.8621 14.0249C17.6081 14.0664 17.3647 14.1426 17.1355 14.2494L16.281 13.3528L15.3112 14.1714L15.9754 15.227C15.8275 15.4383 15.7054 15.6709 15.6137 15.9209L14.4022 15.9146L14.2713 17.2087L15.4578 17.466C15.4969 17.7262 15.5692 17.9804 15.673 18.2222L14.8123 19.1109L15.5982 20.1213L16.6132 19.429C16.8171 19.5838 17.0411 19.7102 17.279 19.8048L17.2743 21.0677L18.5169 21.2034L18.7633 19.9669C19.0172 19.9255 19.2605 19.8507 19.4898 19.744L20.3443 20.6405L21.3156 19.8219L20.6499 18.7664C20.7979 18.5551 20.9199 18.3224 21.0116 18.0725L22.2247 18.0772L22.3541 16.7846L21.1676 16.5273C21.1277 16.2629 21.055 16.0084 20.9524 15.7696L21.8131 14.8824L21.0273 13.8705L20.0138 14.5627C19.8108 14.4087 19.5868 14.2826 19.3465 14.187L19.3527 12.9256L18.11 12.79ZM18.3158 15.793C18.3548 15.7932 18.3946 15.7949 18.4343 15.7993C19.0691 15.8687 19.5285 16.4606 19.4618 17.1215C19.3951 17.7823 18.8274 18.262 18.1926 18.1926C17.5577 18.1232 17.0968 17.5312 17.1635 16.8704C17.226 16.2509 17.73 15.7909 18.3158 15.793Z" fill="#093DE6"/>
</svg>
