<svg width="40" height="40" viewBox="0 0 40 40" fill="none" xmlns="http://www.w3.org/2000/svg">
<g clip-path="url(#clip0)">
<path d="M16.4844 30.5452C16.4844 30.088 16.5721 29.651 16.7316 29.25C15.2402 28.843 14.1406 27.4763 14.1406 25.8577C14.1406 24.9581 14.4802 24.1364 15.038 23.514C14.4802 22.8916 14.1406 22.0698 14.1406 21.1702C14.1406 20.7595 14.2114 20.365 14.3414 19.9983L10.5469 19.9983C8.60836 19.9983 7.03125 18.4212 7.03125 16.4827C7.03125 14.5442 8.60836 12.9671 10.5469 12.9671L20.8879 12.9671C20.3222 12.4014 19.858 11.9372 19.858 11.9372C18.5584 10.6376 18.4841 8.53359 19.6864 7.14999C20.8878 5.7596 22.9818 5.53538 24.4536 6.63952C24.4703 6.65202 24.4866 6.66499 24.5026 6.67843L30.7277 11.8907C31.4036 12.4567 31.8225 13.2734 32.192 13.994C32.4609 14.5184 32.8674 15.3109 33.1253 15.3109L36.4844 15.3109C38.4229 15.3109 40 16.888 40 18.8265L40 28.2015C40 30.14 38.4229 31.7171 36.4844 31.7171L34.0625 31.7171C33.5989 31.7171 33.0404 32.1623 32.4491 32.6335C31.6098 33.3025 30.6584 34.0608 29.375 34.0608L20 34.0608C18.0615 34.0608 16.4844 32.4837 16.4844 30.5452ZM30.9884 30.8007C31.8277 30.1317 32.7791 29.3733 34.0625 29.3733L36.4844 29.3733C37.1305 29.3733 37.6562 28.8476 37.6562 28.2015L37.6562 18.8265C37.6562 18.1803 37.1305 17.6546 36.4844 17.6546L33.1252 17.6546C31.4353 17.6546 30.6673 16.157 30.1064 15.0634C29.8253 14.5154 29.5348 13.9487 29.2229 13.6876L23.0259 8.49898C22.5366 8.14843 21.8535 8.22663 21.4576 8.68484C21.0567 9.14601 21.082 9.84671 21.5152 10.2799C21.5152 10.2799 24.3547 13.1193 24.546 13.311C25.2798 14.0462 24.7595 15.3108 23.7166 15.3108L10.5469 15.3108C9.9007 15.3108 9.375 15.8365 9.375 16.4826C9.375 17.1288 9.9007 17.6545 10.5469 17.6545L20 17.6545C20.6472 17.6545 21.1719 18.1792 21.1719 18.8264C21.1719 19.4736 20.6472 19.9983 20 19.9983L17.6562 19.9983C17.0101 19.9983 16.4844 20.524 16.4844 21.1701C16.4844 21.8163 17.0101 22.342 17.6562 22.342L20 22.342C20.6472 22.342 21.1719 22.8667 21.1719 23.5139C21.1719 24.1611 20.6472 24.6858 20 24.6858L17.6562 24.6858C17.0101 24.6858 16.4844 25.2115 16.4844 25.8576C16.4844 26.5038 17.0101 27.0295 17.6562 27.0295L20 27.0295C20.6472 27.0295 21.1719 27.5542 21.1719 28.2014C21.1719 28.8486 20.6472 29.3733 20 29.3733C19.3538 29.3733 18.8281 29.899 18.8281 30.5451C18.8281 31.1913 19.3538 31.717 20 31.717L29.375 31.717L29.375 31.7171C29.8386 31.7171 30.3971 31.2719 30.9884 30.8007Z" fill="white"/>
<path d="M-5.12243e-08 16.4828C-2.29348e-08 15.8356 0.524687 15.3109 1.17188 15.3109L3.51562 15.3109C4.16281 15.3109 4.6875 15.8356 4.6875 16.4828C4.6875 17.13 4.16281 17.6547 3.51562 17.6547L1.17187 17.6547C0.524687 17.6547 -7.95137e-08 17.13 -5.12243e-08 16.4828Z" fill="white"/>
<path d="M1.85838 22.8275C1.40072 22.3699 1.40072 21.6279 1.85838 21.1702L3.51564 19.513C3.9733 19.0554 4.71525 19.0554 5.17291 19.513C5.63057 19.9705 5.63057 20.7127 5.17291 21.1702L3.51564 22.8275C3.05799 23.2852 2.31603 23.2852 1.85838 22.8275Z" fill="white"/>
<path d="M3.51564 13.4525L1.85838 11.7952C1.40072 11.3376 1.40072 10.5956 1.85838 10.1379C2.31604 9.68026 3.05799 9.68026 3.51564 10.1379L5.17291 11.7952C5.63057 12.2528 5.63057 12.9949 5.17291 13.4525C4.71525 13.9101 3.9733 13.9101 3.51564 13.4525Z" fill="white"/>
<path d="M7.03125 24.6859L7.03125 22.3422C7.03125 21.695 7.55594 21.1703 8.20312 21.1703C8.85031 21.1703 9.375 21.695 9.375 22.3422L9.375 24.6859C9.375 25.3331 8.85031 25.8578 8.20312 25.8578C7.55594 25.8578 7.03125 25.3331 7.03125 24.6859Z" fill="white"/>
<path d="M7.03125 10.6234L7.03125 8.27966C7.03125 7.63248 7.55594 7.10779 8.20312 7.10779C8.85031 7.10779 9.375 7.63248 9.375 8.27966L9.375 10.6234C9.375 11.2706 8.85031 11.7953 8.20312 11.7953C7.55594 11.7953 7.03125 11.2706 7.03125 10.6234Z" fill="white"/>
</g>
<defs>
<clipPath id="clip0">
<rect width="40" height="40" fill="white" transform="matrix(-4.37114e-08 1 1 4.37114e-08 0 0)"/>
</clipPath>
</defs>
</svg>
