<svg width="53" height="53" viewBox="0 0 53 53" fill="none" xmlns="http://www.w3.org/2000/svg">
<path d="M18.9794 39.9603C18.5514 39.9603 18.2045 40.3072 18.2045 40.7352V44.8162C18.2045 45.2443 18.5514 45.5911 18.9794 45.5911C19.4073 45.5911 19.7543 45.2443 19.7543 44.8162V40.7352C19.7543 40.3072 19.4073 39.9603 18.9794 39.9603Z" fill="white"/>
<path d="M33.9795 39.9603C33.5515 39.9603 33.2046 40.3072 33.2046 40.7352V44.8162C33.2046 45.2443 33.5515 45.5911 33.9795 45.5911C34.4075 45.5911 34.7544 45.2443 34.7544 44.8162V40.7352C34.7544 40.3072 34.4075 39.9603 33.9795 39.9603Z" fill="white"/>
<path d="M49.0365 37.2549L46.4418 36.214V35.5513C46.9511 35.2682 47.4085 34.8998 47.7933 34.4651C49.4346 34.6588 51.005 34.0036 52.0215 32.6855C53.0728 31.3225 53.2915 29.566 52.6067 27.9867L51.4416 25.3002C51.354 25.0983 51.2937 24.8853 51.2623 24.6675C51.0113 22.9224 50.1391 21.3255 48.8066 20.171C47.4741 19.0164 45.7693 18.3806 44.0062 18.3806C42.2431 18.3806 40.5383 19.0164 39.2058 20.171C37.8734 21.3255 37.0011 22.9223 36.75 24.6675C36.7186 24.8854 36.6584 25.0984 36.5708 25.3002L35.4057 27.9867C34.7209 29.5659 34.9397 31.3224 35.991 32.6855C36.8903 33.8515 38.2227 34.5013 39.6542 34.5012C39.8388 34.5012 40.0253 34.4903 40.2128 34.4683C40.562 34.8643 40.9715 35.2053 41.4277 35.4769V36.2139L38.8331 37.2549C38.664 37.3228 38.4989 37.3996 38.3379 37.4845C37.8359 36.5611 37.1191 35.7537 36.2272 35.1403L32.8477 32.816C32.8672 32.3892 32.6966 31.9593 32.3489 31.6643L30.9756 30.4991C30.8455 30.3885 30.6992 30.305 30.5446 30.2483V28.6795C31.9961 27.6266 33.0254 26.027 33.3271 24.1848H33.4098C34.8873 24.1848 36.0893 22.9828 36.0893 21.5054C36.0893 20.8746 35.8697 20.2944 35.5036 19.8361L36.0575 15.8985C36.4567 13.0598 34.4749 10.4075 31.6395 9.9857L31.5292 9.96937C30.6226 8.48961 29.2184 7.42199 27.5335 6.94423L27.3307 6.88668C25.0969 6.25332 22.7075 6.63138 20.7752 7.92413C20.4194 8.16208 20.324 8.64335 20.5619 8.99898C20.7999 9.35461 21.281 9.45018 21.6369 9.21213C23.1909 8.17251 25.1121 7.86844 26.9079 8.37771L27.1107 8.43526C28.5205 8.83501 29.6778 9.76665 30.3695 11.0586C30.8453 11.9475 31.0553 12.925 30.9947 13.9028L30.4694 13.4513C29.9892 13.0386 29.2832 13.0277 28.7908 13.4255L28.1018 13.9821H24.1684C21.6161 13.9821 19.5395 16.0586 19.5395 18.6109V18.8262C19.334 18.8269 19.1342 18.8515 18.942 18.8962C18.066 16.4299 18.313 13.6512 19.6297 11.3783C19.8442 11.0079 19.718 10.5338 19.3477 10.3192C18.9774 10.1048 18.5033 10.231 18.2887 10.6013C16.6964 13.3502 16.4382 16.73 17.583 19.6879C17.1408 20.1658 16.87 20.8044 16.87 21.5054C16.87 22.9828 18.0721 24.1848 19.5496 24.1848H19.6322C19.9339 26.027 20.9632 27.6266 22.4148 28.6795V30.2483C22.2602 30.3049 22.1139 30.3885 21.9838 30.499L20.6105 31.6643C20.2628 31.9593 20.0921 32.3893 20.1116 32.816L16.7321 35.1403C16.0453 35.6125 15.4622 36.1998 15.001 36.8665C14.7021 36.7014 14.3905 36.5603 14.068 36.446L11.7734 35.6333V35.0226C12.9422 34.3005 13.7824 33.0968 14.0164 31.6904H14.3632C15.7228 31.6904 16.8288 30.5843 16.8288 29.2248C16.8288 28.6144 16.6054 28.0556 16.2367 27.6246L16.375 25.9868C16.5673 23.6284 15.5382 21.3913 13.6221 20.003C11.7061 18.6145 9.25972 18.3331 7.07841 19.2502L5.53386 19.8996C3.14229 20.4275 1.54381 22.7192 1.88528 25.1534L2.23079 27.6166C1.85801 28.0487 1.63184 28.6107 1.63184 29.2248C1.63184 30.5843 2.73789 31.6904 4.09749 31.6904H4.44424C4.66307 33.0055 5.41225 34.143 6.46427 34.8756V35.6333L4.16971 36.4459C3.84838 36.5598 3.53181 36.7024 3.22887 36.87C2.85433 37.077 2.71857 37.5485 2.92562 37.923C3.06697 38.1787 3.33157 38.3231 3.60444 38.3231C3.73122 38.3231 3.85985 38.2919 3.97867 38.2261C4.20732 38.0997 4.44568 37.9922 4.68694 37.9068L6.66967 37.2045C7.07117 38.1615 8.0176 38.8353 9.11869 38.8353C10.2198 38.8353 11.1662 38.1615 11.5677 37.2045L13.5504 37.9069C13.7999 37.9951 14.0406 38.1049 14.2713 38.2339C13.9635 39.0142 13.7985 39.855 13.7985 40.7178V45.315C13.7985 45.7431 14.1455 46.0899 14.5734 46.0899C15.0014 46.0899 15.3483 45.7431 15.3483 45.315V40.7178C15.3483 38.999 16.1939 37.3913 17.6101 36.4173L20.8375 34.1978L22.1603 35.9664C22.4446 36.3466 22.8905 36.5608 23.3503 36.5608C23.4935 36.5608 23.6382 36.54 23.7796 36.497L25.7046 35.9111V45.6394C25.7046 46.0675 26.0516 46.4143 26.4795 46.4143C26.9075 46.4143 27.2544 46.0675 27.2544 45.6394V35.9111L29.1796 36.4971C29.3211 36.54 29.4655 36.5608 29.6087 36.5608C30.0685 36.5608 30.5144 36.3465 30.7988 35.9664L32.1215 34.1978L35.3488 36.4173C36.7651 37.3913 37.6106 38.999 37.6106 40.7178V45.315C37.6106 45.7431 37.9576 46.0899 38.3855 46.0899C38.8135 46.0899 39.1604 45.7431 39.1604 45.315V40.7178C39.1604 40.1075 39.0777 39.5082 38.9206 38.9333C39.0777 38.8416 39.241 38.7612 39.41 38.6935L41.66 37.7906C42.0586 38.6486 42.928 39.2453 43.9347 39.2453C44.9413 39.2453 45.8108 38.6487 46.2094 37.7908L48.4595 38.6935C49.8824 39.2642 50.8016 40.6236 50.8016 42.1566V43.4682C50.8016 43.8963 51.1486 44.2432 51.5765 44.2432C52.0045 44.2432 52.3514 43.8963 52.3514 43.4682V42.1566C52.3513 39.9868 51.0501 38.0629 49.0365 37.2549ZM18.4195 21.5053C18.4195 20.8858 18.921 20.3816 19.5392 20.3761V22.6343C18.9211 22.6289 18.4195 22.1248 18.4195 21.5053ZM14.363 30.1404H14.0832V28.3088H14.363C14.868 28.3088 15.2788 28.7197 15.2788 29.2246C15.2788 29.7295 14.868 30.1404 14.363 30.1404ZM3.18145 29.2247C3.18145 28.7197 3.59225 28.3089 4.09728 28.3089H4.37708V30.1405H4.09728C3.59235 30.1404 3.18145 29.7296 3.18145 29.2247ZM5.31823 24.3704C4.80421 25.0802 4.49342 25.8976 4.40446 26.7589H4.09728C3.95511 26.7589 3.81604 26.7718 3.68038 26.7949L3.41991 24.9379C3.18826 23.2868 4.28677 21.7335 5.92069 21.4015C5.9707 21.3914 6.01968 21.3763 6.06679 21.3565L7.67901 20.6786C9.35715 19.973 11.2388 20.1897 12.7127 21.2576C14.1866 22.3257 14.9782 24.0465 14.8305 25.8583L14.7518 26.7897C14.6251 26.7696 14.4953 26.7588 14.363 26.7588H14.0763C14.0096 26.1018 13.4532 25.5873 12.7788 25.5873H10.8653C9.5016 25.5873 8.15212 25.1334 7.0656 24.3094L6.84635 24.1432C6.61615 23.9686 6.32003 23.8927 6.03455 23.9353C5.74877 23.9779 5.48768 24.1365 5.31823 24.3704ZM6.57348 25.2794C6.57327 25.2797 6.57317 25.2799 6.57306 25.2801C6.57317 25.2799 6.57337 25.2797 6.57348 25.2794ZM5.927 27.2747C5.927 26.7143 6.06204 26.1727 6.32065 25.685C7.64037 26.6231 9.24484 27.1373 10.8654 27.1373H12.5333V30.8914C12.5333 32.7128 11.0515 34.1947 9.23017 34.1947C7.40883 34.1947 5.927 32.7128 5.927 30.8914V27.2747ZM9.11858 37.2855C8.5094 37.2855 8.01388 36.7899 8.01388 36.1808V35.59C8.40267 35.6908 8.81027 35.7445 9.23017 35.7445C9.57051 35.7445 9.90259 35.7089 10.2234 35.6419V36.1808C10.2234 36.7899 9.72777 37.2855 9.11858 37.2855ZM33.4195 22.6343V20.3761C34.0378 20.3815 34.5392 20.8858 34.5392 21.5053C34.5392 22.1248 34.0378 22.6289 33.4195 22.6343ZM34.5224 15.6823L34.0687 18.908C33.8608 18.8552 33.6433 18.8268 33.4194 18.826V18.7632C33.4194 17.5139 33.033 16.3122 32.3332 15.308C32.6383 14.1328 32.6275 12.9229 32.3117 11.7729C33.8085 12.4118 34.7591 14.0005 34.5224 15.6823ZM21.0892 23.0595V18.6107C21.0892 16.9129 22.4705 15.5317 24.1682 15.5317H28.3755C28.5527 15.5317 28.7245 15.4709 28.8623 15.3596L29.6096 14.7559L30.3039 15.3526C31.2989 16.2079 31.8696 17.4512 31.8696 18.7632V23.0594C31.8696 26.0317 29.4516 28.4497 26.4793 28.4497C23.5071 28.4497 21.0892 26.0317 21.0892 23.0595ZM26.4794 29.9996C27.3664 29.9996 28.2141 29.8306 28.9946 29.526V30.5189L26.4794 31.7521L23.9643 30.5189V29.526C24.7447 29.8305 25.5924 29.9996 26.4794 29.9996ZM23.3732 35.0005L21.7039 32.7686L22.9228 31.7343L25.7044 33.0981V34.291L23.3732 35.0005ZM29.5856 35.0005L27.2543 34.2911V33.0982L30.0359 31.7344L31.2548 32.7687L29.5856 35.0005ZM37.218 31.739C36.5164 30.8294 36.3704 29.6573 36.8275 28.6034L37.9926 25.9169C38.135 25.5887 38.233 25.2427 38.284 24.8883C38.6907 22.062 41.1507 19.9306 44.0062 19.9306C46.8617 19.9306 49.3216 22.062 49.7283 24.8883C49.7793 25.2426 49.8773 25.5886 50.0197 25.9169L51.1847 28.6034C51.6417 29.6572 51.4958 30.8294 50.7943 31.739C50.2748 32.4125 49.5386 32.8271 48.7306 32.9266C48.8975 32.4931 49.0063 32.0309 49.0463 31.5492C49.0816 31.1227 48.7644 30.7483 48.338 30.7129C47.9119 30.6783 47.5372 30.9948 47.5017 31.4212C47.3524 33.2239 45.817 34.6359 44.0062 34.6359C42.0713 34.6359 40.4973 33.062 40.4973 31.1271V27.4097C40.4973 26.5854 40.7399 25.7747 41.1868 25.0866C42.1895 25.852 43.4255 26.2898 44.6881 26.3231L47.5151 26.3977V28.1827C47.5151 28.6108 47.862 28.9576 48.29 28.9576C48.7179 28.9576 49.0649 28.6108 49.0649 28.1827V26.1879C49.0649 25.4591 48.4941 24.8731 47.7656 24.854L44.7289 24.774C43.7456 24.748 42.784 24.3919 42.0212 23.7714L41.8209 23.6085C41.5848 23.4164 41.2881 23.3284 40.9853 23.3609C40.6827 23.3933 40.4112 23.542 40.2212 23.7796C39.3997 24.806 38.9472 26.0952 38.9472 27.41V31.1274C38.9472 31.7604 39.0651 32.3662 39.2784 32.9252C38.4719 32.8249 37.7368 32.4116 37.218 31.739ZM43.9346 37.6954C43.4067 37.6954 42.9772 37.266 42.9772 36.738V36.0804C43.3096 36.1493 43.6537 36.1859 44.0061 36.1859C44.3076 36.1859 44.6034 36.1576 44.8919 36.1055V36.7381C44.892 37.266 44.4625 37.6954 43.9346 37.6954Z" fill="white"/>
<path d="M1.66089 39.2597C1.27571 39.0728 0.812311 39.2342 0.625713 39.6194C0.210568 40.477 0 41.3943 0 42.3458V44.816C0 45.2441 0.346952 45.5909 0.774908 45.5909C1.20286 45.5909 1.54982 45.2441 1.54982 44.816V42.3458C1.54982 41.6302 1.70821 40.9402 2.02075 40.2948C2.20725 39.9096 2.04617 39.4461 1.66089 39.2597Z" fill="white"/>
</svg>
